<svg xmlns="http://www.w3.org/2000/svg" version="1.1" xmlns:xlink="http://www.w3.org/1999/xlink" xmlns:svgjs="http://svgjs.dev/svgjs" width="100%" height="100%" viewBox="0 0 1000 600"><rect width="1000" height="600" x="0" y="0" fill="#ffe8f5"/><g><circle r="166.66666666666666" cx="365.0825754801432" cy="387.30479170058413" fill="#000000" transform="matrix(0.629989790351005,0,0,0.6299897903510051,0,56.001925251324465)"/><path d="M203.53843350657954 453.1465276050296Q208.4584093656759 452.2870137501272 211.86682637649568 451.22003103369667Q215.27524338731544 450.1530483172661 218.6836603981352 447.574506752559L218.6836603981352 447.574506752559L258.60659703791106 318.7067053347821L271.4103896350775 318.7067053347821L315.36414987025756 447.8116140228769Q320.69906345241026 451.6349687567529 329.4423940453827 453.1465276050296L329.4423940453827 453.1465276050296L328.5828801904803 461.0303443430996L275.2337443689536 461.0303443430996L276.3007270853841 453.1465276050296Q288.6895819594942 451.6349687567529 295.95099211297975 447.36703789103086L295.95099211297975 447.36703789103086L285.07369608714623 415.15008753658657L241.94981129807883 415.15008753658657L232.13949798867583 447.36703789103086Q239.19343928063327 451.4274998952248 252.82710732391232 453.1465276050296L252.82710732391232 453.1465276050296L251.9972318777997 461.0303443430996L202.47145079014902 461.0303443430996L203.53843350657954 453.1465276050296ZM245.35822830889856 404.0653226492249L281.4281718060086 404.0653226492249L262.66705904210505 348.3451141245192L245.35822830889856 404.0653226492249ZM369.1282234148406 462.3047959210583Q361.6593443998269 462.3047959210583 351.96758472558287 459.8448079915101Q342.2461866425491 457.4144584707517 337.3558491922425 454.2135103214601L337.3558491922425 454.2135103214601L337.3558491922425 427.95388013375305L348.6480829411323 426.4719596942662Q349.5075967960347 435.4227591487668 350.69313314762417 440.63911909576046Q351.8490310904239 445.885117451544 354.42757265513103 450.5679860403224L354.42757265513103 450.5679860403224Q361.2444066767706 452.7019514731835 370.84725112464537 452.7019514731835L370.84725112464537 452.7019514731835Q379.59058171761785 452.7019514731835 385.1329641612987 448.019082884405Q390.70498501376926 443.3065758868368 390.70498501376926 436.28227300366916L390.70498501376926 436.28227300366916Q390.70498501376926 429.2283317117117 385.2515177964576 425.701361065733Q379.798050579146 422.20402882854404 368.0612406984101 418.14356682435005L368.0612406984101 418.14356682435005Q358.25092738900713 414.7351498135303 352.17505358711105 411.53420166423865Q346.0991797852149 408.3332535149471 341.8312489194928 402.3462949394202Q337.5633180537707 396.3593363638933 337.5633180537707 386.9935991863364L337.5633180537707 386.9935991863364Q337.5633180537707 374.18980658916996 347.0476088664865 366.92839643568436Q356.5615380879921 359.66698628219876 373.18868541903464 359.66698628219876L373.18868541903464 359.66698628219876Q382.16912328232496 359.66698628219876 389.7269175237079 362.45299670843406Q397.3143501738806 365.20936872587964 401.7897499011309 370.010790949817Q406.2651496283812 374.81221317375446 406.2651496283812 380.5917028877532L406.2651496283812 380.5917028877532Q406.2651496283812 391.6764677751149 396.4548363189782 391.6764677751149L396.4548363189782 391.6764677751149Q392.3943743147843 391.6764677751149 389.7269175237079 390.28346256199717Q387.0594607326316 388.8904573488796 384.9254952997705 385.9266164699058L384.9254952997705 385.9266164699058Q388.5710195809081 383.3480749051987 388.5710195809081 378.2206301845742L388.5710195809081 378.2206301845742Q388.5710195809081 373.7452304573239 383.76959735697073 370.98885843987836Q378.96817513303336 368.20284801364306 371.9142338410759 368.20284801364306L371.9142338410759 368.20284801364306Q363.37837210963164 368.20284801364306 358.4583962505353 372.0558411563089Q353.56805880022864 375.879195890185 353.56805880022864 382.48856105029637L353.56805880022864 382.48856105029637Q353.56805880022864 387.823474632449 356.8579221758895 391.35044527842774Q360.1774239603401 394.8774159244064 364.8602925491185 397.0113813572675Q369.5727995466867 399.1453467901286 378.31613013965915 402.138826077892L378.31613013965915 402.138826077892Q387.5040368644776 405.5472430887118 393.3724418048456 408.7481912380034Q399.2408467452135 411.949139387295 403.27167034061773 417.6100754661348Q407.3321323448117 423.27101154497456 407.3321323448117 432.01434213794704L407.3321323448117 432.01434213794704Q407.3321323448117 446.3000551746003 397.3143501738806 454.3024255478293Q387.2669295941597 462.3047959210583 369.1282234148406 462.3047959210583L369.1282234148406 462.3047959210583ZM420.13592494197815 453.1465276050296Q425.05590080107453 452.4944826116553 428.049380088838 451.4274998952248Q431.01322096781166 450.3605171787943 434.21416911710327 447.8116140228769L434.21416911710327 447.8116140228769L434.21416911710327 340.0463596633928Q434.21416911710327 332.132904516533 430.9243057414425 329.25797886392854Q427.60480395699193 326.38305321132407 419.27641108707576 325.938477079478L419.27641108707576 325.938477079478L419.92845608045 319.5365807808948Q428.25684895036613 318.2621292029361 437.3262020400257 315.59467241185973Q446.39555512968525 312.9272156207834 448.32205170101815 312.3048090361989L448.32205170101815 312.3048090361989L452.3528752964223 314.43877446906L452.3528752964223 373.95269931885207Q457.687788878575 367.3433341587407 464.86028380569144 363.4014257897057Q472.0031403240181 359.45951742067064 479.8869570620882 359.45951742067064L479.8869570620882 359.45951742067064Q495.4767600854899 359.45951742067064 504.10153704330344 367.2544189323715Q512.7559524099065 375.0196820352826 512.7559524099065 388.8904573488796L512.7559524099065 388.8904573488796L512.7559524099065 447.8116140228769Q514.6824489812395 449.5010033238919 518.9503798469616 451.22003103369667Q523.2183107126838 452.9094203347117 527.6937104399341 453.7689341896141L527.6937104399341 453.7689341896141L526.8341965850317 461.0303443430996L479.8869570620882 461.0303443430996L480.53900205546233 453.7689341896141Q488.63028765506056 452.4944826116553 494.6172462305875 447.8116140228769L494.6172462305875 447.8116140228769L494.6172462305875 390.8169539202125Q494.6172462305875 369.68476845312995 476.4785400512684 369.68476845312995L476.4785400512684 369.68476845312995Q469.00966103625467 369.68476845312995 462.4002958761432 374.7232979473852Q455.7909307160319 379.7321890328508 452.3528752964223 387.6160057709208L452.3528752964223 387.6160057709208L452.3528752964223 447.8116140228769Q457.687788878575 451.8424376182811 467.2906333264499 453.56146532808583L467.2906333264499 453.56146532808583L466.46075788033727 461.0303443430996L419.27641108707576 461.0303443430996L420.13592494197815 453.1465276050296Z " fill="#ffe8f5" transform="matrix(0.629989790351005,0,0,0.6299897903510051,0,56.001925251324465)"/><path d="M632.5825789196715 462.304792666719Q624.969967004712 462.304792666719 620.0150125038507 459.30929744574377Q615.082580523448 456.3138022247686 615.082580523448 449.8273163327321L615.082580523448 449.8273163327321Q615.082580523448 446.0885779366277 617.2672650079186 443.49848808390476Q619.4519494923892 440.9083982311818 622.8528500816167 440.9083982311818L622.8528500816167 440.9083982311818Q627.2447415710164 440.9083982311818 629.181678330444 444.15164117720013L629.181678330444 444.15164117720013Q628.055552307521 444.9624519137047 627.4023992142256 446.4264157435046Q626.7492461209304 447.86785705284603 626.7492461209304 449.4894785258552L626.7492461209304 449.4894785258552Q626.7492461209304 451.92191073536884 628.3708675939395 453.6336222902118Q629.9924890669486 455.34533384505477 632.7402365628807 455.34533384505477L632.7402365628807 455.34533384505477Q639.2267224549172 455.34533384505477 639.2267224549172 444.80479427049545L639.2267224549172 444.80479427049545Q639.2267224549172 440.75074058797264 638.9114071684987 437.01200219186825Q638.5960918820804 433.27326379576385 638.4159117184126 431.98948012963166L638.4159117184126 431.98948012963166Q637.2897856954896 424.5345258578813 637.2897856954896 415.4354275926634L637.2897856954896 415.4354275926634L637.2897856954896 370.6831794417032Q637.2897856954896 364.6921889997528 634.7672634041421 362.50750451528216Q632.267263633253 360.30029751035306 625.9384353844257 359.9849822239346L625.9384353844257 359.9849822239346L626.4339308345118 355.2777754481164Q634.6996958427667 353.81381161831655 647.9879829132582 349.6021002925845L647.9879829132582 349.6021002925845L651.0735682160673 351.38137940880284L651.0735682160673 432.642633222927Q651.0735682160673 449.3318208826459 645.7132083469537 456.3138022247686L645.7132083469537 456.3138022247686Q641.3438393780125 462.304792666719 632.5825789196715 462.304792666719L632.5825789196715 462.304792666719ZM642.9654608510216 337.5975968882252Q634.5420381995575 337.5975968882252 634.5420381995575 328.2057058570474L634.5420381995575 328.2057058570474Q634.5420381995575 318.79129230541105 642.9654608510216 318.79129230541105L642.9654608510216 318.79129230541105Q647.1771721767536 318.79129230541105 649.3618566612242 321.2237245149247Q651.5690636661534 323.65615672443846 651.5690636661534 328.2057058570474L651.5690636661534 328.2057058570474Q651.5690636661534 332.73273246919786 649.3618566612242 335.16516467871156Q647.1771721767536 337.5975968882252 642.9654608510216 337.5975968882252L642.9654608510216 337.5975968882252ZM702.1546446158547 428.4083993767365Q685.1276191492589 428.4083993767365 676.4564487727519 418.36335525226326Q667.7852783962446 408.31831112779 667.7852783962446 389.17416873809896L667.7852783962446 389.17416873809896Q667.7852783962446 370.03002634840783 676.4564487727519 360.07507230576846Q685.1276191492589 350.0975957426706 702.1546446158547 350.0975957426706L702.1546446158547 350.0975957426706Q719.1816700824506 350.0975957426706 727.8528404589578 360.07507230576846Q736.524010835465 370.03002634840783 736.524010835465 389.17416873809896L736.524010835465 389.17416873809896Q736.524010835465 408.31831112779 727.8528404589578 418.36335525226326Q719.1816700824506 428.4083993767365 702.1546446158547 428.4083993767365L702.1546446158547 428.4083993767365ZM702.1546446158547 420.9534451049862Q712.6951841904141 420.9534451049862 717.4699585276077 413.49849083323585Q722.2672553852597 406.04353656148555 722.2672553852597 389.17416873809896L722.2672553852597 389.17416873809896Q722.2672553852597 372.3048009147123 717.5600486094415 364.9399367247958Q712.8528418336233 357.5525500144209 702.1546446158547 357.5525500144209L702.1546446158547 357.5525500144209Q691.6141050412955 357.5525500144209 686.9969883473111 364.9399367247958Q682.3798716533267 372.3048009147123 682.3798716533267 389.17416873809896L682.3798716533267 389.17416873809896Q682.3798716533267 406.04353656148555 686.9969883473111 413.49849083323585Q691.6141050412955 420.9534451049862 702.1546446158547 420.9534451049862L702.1546446158547 420.9534451049862ZM785.8258081190341 428.4083993767365Q775.6231063513518 428.4083993767365 767.01950353622 420.4804721753585L767.01950353622 420.4804721753585Q764.5870713267062 424.1966880510044 763.7762605902017 427.2822733538135L763.7762605902017 427.2822733538135L755.9834685115745 427.2822733538135L755.9834685115745 335.34534484237923Q755.9834685115745 329.33183187997037 753.5510363020609 327.14714739549976Q751.1186040925471 324.9624629110291 744.6321182005106 324.6246251041522L744.6321182005106 324.6246251041522L745.1276136505967 319.75976068512483Q751.456441899424 318.79129230541105 758.3483331597128 316.7642654641496Q765.2402244200016 314.7372386228882 766.7041882498015 314.26426569326054L766.7041882498015 314.26426569326054L769.9474311958197 315.8858871662697L769.9474311958197 361.4489460537345Q772.3798634053335 356.74173927791634 777.8077908358224 353.4084062500643Q783.2357182663112 350.0975957426706 789.0690510650525 350.0975957426706L789.0690510650525 350.0975957426706Q805.6231036020206 350.0975957426706 813.2357155169801 360.48047767402073Q820.8483274319397 370.8408370849124 820.8483274319397 388.8588534516805L820.8483274319397 388.8588534516805Q820.8483274319397 406.51650949111325 811.7717516871802 417.46245443392485Q802.6951759424209 428.4083993767365 785.8258081190341 428.4083993767365L785.8258081190341 428.4083993767365ZM786.6366188555387 421.6065981982815Q798.3258069734795 421.6065981982815 802.1996804923347 412.43993237168826Q806.0960765316482 403.273266545095 806.0960765316482 388.8588534516805L806.0960765316482 388.8588534516805Q806.0960765316482 378.94894444995805 804.9699505087252 372.23723335333693Q803.8213019653438 365.5029997362573 800.1726536510732 361.2912884105253Q796.5240053368027 357.0570545643348 789.4068888719293 357.0570545643348L789.4068888719293 357.0570545643348Q777.5600431107792 357.0570545643348 773.7537371532995 367.1246212092665Q769.9474311958197 377.1696653337397 769.9474311958197 394.0390331571263L769.9474311958197 394.0390331571263L769.9474311958197 413.49849083323585Q774.1591425215519 417.23722922934024 778.0555385608654 419.42191371381085Q781.9294120797206 421.6065981982815 786.6366188555387 421.6065981982815L786.6366188555387 421.6065981982815ZM850.6906670393993 428.4083993767365Q840.6456229149261 428.4083993767365 835.1276054026034 423.5435349577091Q829.6095878902806 418.67867053868173 829.6095878902806 409.9399326007992L829.6095878902806 409.9399326007992Q829.6095878902806 399.3993930262398 837.4023799689079 393.3183125024556Q845.1726495270766 387.23723197867133 859.9474229478265 386.2462410784991L859.9474229478265 386.2462410784991L873.235710018318 385.2777726987853L873.235710018318 372.14714327150307Q873.235710018318 364.03903590645746 869.8348094290905 360.30029751035306Q866.433908839863 356.58408163470716 858.798774404445 356.58408163470716L858.798774404445 356.58408163470716Q852.3122885124085 356.58408163470716 848.8212978413471 358.5210183941347Q845.3528296907442 360.48047767402073 845.3528296907442 363.8813782632482L845.3528296907442 363.8813782632482Q845.3528296907442 368.09308958898026 850.2176941097716 369.8723687051986L850.2176941097716 369.8723687051986Q850.2176941097716 373.611107101303 847.8528294616334 375.6381339425644Q845.5104873339535 377.6651607838258 840.9609382013446 377.6651607838258L840.9609382013446 377.6651607838258Q836.7492268756125 377.6651607838258 834.1591370228896 375.0750709311029Q831.5690471701666 372.46245855792154 831.5690471701666 368.2507472321895L831.5690471701666 368.2507472321895Q831.5690471701666 359.9849822239346 838.9339113600831 355.0300277230734Q846.321298070458 350.0975957426706 858.798774404445 350.0975957426706L858.798774404445 350.0975957426706Q872.1095839953949 350.0975957426706 879.5645382671452 355.9309285414118Q887.0194925388955 361.764261340153 887.0194925388955 372.14714327150307L887.0194925388955 372.14714327150307L887.0194925388955 417.3948868725495Q888.4834563686954 418.5210128954725 891.7266993147138 419.8273190820632Q894.969942260732 421.1111027481954 898.3708428499593 421.76425584149075L898.3708428499593 421.76425584149075L897.7176897566641 427.2822733538135L875.3528269414131 427.2822733538135L873.731205468404 419.98497672527236Q868.686160885709 424.69218350109054 863.1906658938448 426.56155269914274Q857.672648381522 428.4083993767365 850.6906670393993 428.4083993767365L850.6906670393993 428.4083993767365ZM854.7447207219221 421.76425584149075Q859.2942698545311 421.76425584149075 863.6636388234723 419.5795713570201Q868.0555303128721 417.3948868725495 873.235710018318 412.37236481031283L873.235710018318 412.37236481031283L873.235710018318 391.9219162340311L860.2627382342449 393.0705647774125Q852.6501263192853 393.7237178707079 848.2582348298856 397.8453391146061Q843.8888658609444 401.98948287896275 843.8888658609444 408.47596877099926L843.8888658609444 408.47596877099926Q843.8888658609444 421.76425584149075 854.7447207219221 421.76425584149075L854.7447207219221 421.76425584149075ZM906.478950215005 455.502991488264Q910.0375084474418 455.00749603817786 912.3122830137462 454.12911774029794Q914.5870575800508 453.22821692195953 917.0194897895643 451.4489378057412L917.0194897895643 451.4489378057412L917.0194897895643 370.8408370849124Q917.0194897895643 364.849846642962 914.5870575800508 362.66516215849134Q912.154625370537 360.48047767402073 905.8257971217097 360.1426398671438L905.8257971217097 360.1426398671438L906.3212925717959 355.43543309132565Q911.3438146340325 354.46696471161187 920.7582281856688 351.5615595724705L920.7582281856688 351.5615595724705L926.0960655343239 349.93993809946136L929.0239931939237 351.5615595724705L930.4879570237237 361.4489460537345Q937.1321005589692 350.0975957426706 951.7266938160515 350.0975957426706L951.7266938160515 350.0975957426706Q966.4789447163429 350.0975957426706 973.9338989880931 359.5795768556823Q981.3888532598435 369.06155796869405 981.3888532598435 387.71020490829903L981.3888532598435 387.71020490829903Q981.3888532598435 407.5075003912855 971.9969622286654 417.957949884011Q962.5825486770292 428.4083993767365 944.7447124739289 428.4083993767365L944.7447124739289 428.4083993767365Q937.1321005589692 428.4083993767365 930.9609299533512 425.81830952401356L930.9609299533512 425.81830952401356L930.9609299533512 451.4489378057412Q935.1726412790832 454.69218075175945 942.1546226212059 455.8183067746824L942.1546226212059 455.8183067746824L941.6591271711197 461.3363242870052L905.8257971217097 461.3363242870052L906.478950215005 455.502991488264ZM945.240207924015 421.6065981982815Q955.623089855365 421.6065981982815 961.3663325722724 412.6876800967313Q967.1320978096381 403.7687619951811 967.1320978096381 387.71020490829903L967.1320978096381 387.71020490829903Q967.1320978096381 371.98948562829383 963.0780441271154 364.53453135654354Q959.0239904445925 357.0570545643348 950.4203876294608 357.0570545643348L950.4203876294608 357.0570545643348Q940.8483164346152 357.0570545643348 935.9158844542125 364.75975656112814Q930.9609299533512 372.46245855792154 930.9609299533512 387.5525472650898L930.9609299533512 387.5525472650898L930.9609299533512 418.36335525226326Q936.7942627520923 421.6065981982815 945.240207924015 421.6065981982815L945.240207924015 421.6065981982815ZM990.8032668114798 455.502991488264Q994.3618250439164 455.00749603817786 996.636599610221 454.12911774029794Q998.9113741765254 453.22821692195953 1001.3438063860391 451.4489378057412L1001.3438063860391 451.4489378057412L1001.3438063860391 370.8408370849124Q1001.3438063860391 364.849846642962 998.9113741765254 362.66516215849134Q996.4789419670117 360.48047767402073 990.1501137181843 360.1426398671438L990.1501137181843 360.1426398671438L990.6456091682705 355.43543309132565Q995.6681312305071 354.46696471161187 1005.0825447821434 351.5615595724705L1005.0825447821434 351.5615595724705L1010.4203821307985 349.93993809946136L1013.3483097903984 351.5615595724705L1014.8122736201983 361.4489460537345Q1021.456417155444 350.0975957426706 1036.051010412526 350.0975957426706L1036.051010412526 350.0975957426706Q1050.8032613128175 350.0975957426706 1058.258215584568 359.5795768556823Q1065.713169856318 369.06155796869405 1065.713169856318 387.71020490829903L1065.713169856318 387.71020490829903Q1065.713169856318 407.5075003912855 1056.3212788251403 417.957949884011Q1046.906865273504 428.4083993767365 1029.0690290704035 428.4083993767365L1029.0690290704035 428.4083993767365Q1021.456417155444 428.4083993767365 1015.2852465498258 425.81830952401356L1015.2852465498258 425.81830952401356L1015.2852465498258 451.4489378057412Q1019.496957875558 454.69218075175945 1026.4789392176806 455.8183067746824L1026.4789392176806 455.8183067746824L1025.9834437675945 461.3363242870052L990.1501137181843 461.3363242870052L990.8032668114798 455.502991488264ZM1029.5645245204896 421.6065981982815Q1039.94740645184 421.6065981982815 1045.690649168747 412.6876800967313Q1051.4564144061128 403.7687619951811 1051.4564144061128 387.71020490829903L1051.4564144061128 387.71020490829903Q1051.4564144061128 371.98948562829383 1047.40236072359 364.53453135654354Q1043.348307041067 357.0570545643348 1034.7447042259355 357.0570545643348L1034.7447042259355 357.0570545643348Q1025.1726330310898 357.0570545643348 1020.2402010506872 364.75975656112814Q1015.2852465498258 372.46245855792154 1015.2852465498258 387.5525472650898L1015.2852465498258 387.5525472650898L1015.2852465498258 418.36335525226326Q1021.1185793485671 421.6065981982815 1029.5645245204896 421.6065981982815L1029.5645245204896 421.6065981982815ZM1075.78073650125 421.4489405550723Q1079.6771325405634 420.79578746177697 1081.9293845864095 419.98497672527236Q1084.204159152714 419.1741659887678 1086.4789337190184 417.23722922934024L1086.4789337190184 417.23722922934024L1086.4789337190184 359.6696669375162L1074.474430314659 359.6696669375162L1073.6636195781548 353.9939917819842Q1081.1185738499048 353.3408386886889 1086.4789337190184 351.0660641223844L1086.4789337190184 351.0660641223844L1086.4789337190184 342.30480366404345Q1086.4789337190184 328.8588589503427 1092.0645187927166 320.5705714216294Q1097.6726263868732 312.30480641337454 1109.9924450776507 312.30480641337454L1109.9924450776507 312.30480641337454Q1118.1005524426964 312.30480641337454 1123.9338852414376 316.2012024526881Q1129.7672180401787 320.09759849200174 1129.7672180401787 326.426426740829L1129.7672180401787 326.426426740829Q1129.7672180401787 331.2912911598564 1127.2672182692895 333.8813810125793Q1124.7446959779422 336.47147086530225 1121.3437953887146 336.47147086530225L1121.3437953887146 336.47147086530225Q1118.5960478927825 336.47147086530225 1116.569021051521 334.8498493922931Q1114.5419942102599 333.228227919284 1114.0464987601736 330.30030025968415L1114.0464987601736 330.30030025968415Q1116.9744264197734 327.3948951205428 1116.9744264197734 324.3093098177338L1116.9744264197734 324.3093098177338Q1116.9744264197734 321.7192199650109 1114.7672194148445 320.0075084101679Q1112.5825349303736 318.3183193757834 1108.8663190547277 318.3183193757834L1108.8663190547277 318.3183193757834Q1103.190643899196 318.3183193757834 1100.758211689682 322.0345352514293Q1098.3257794801684 325.77327364753364 1098.3257794801684 331.6066064462749L1098.3257794801684 331.6066064462749Q1098.3257794801684 334.5345341058746 1099.294247859882 341.0210199979112L1099.294247859882 341.0210199979112Q1100.262716239596 348.1381364627846 1100.262716239596 351.0660641223844L1100.262716239596 351.0660641223844L1117.1320840629826 351.0660641223844L1117.1320840629826 359.6696669375162L1100.262716239596 359.6696669375162L1100.262716239596 417.23722922934024Q1103.8212744720327 419.98497672527236 1112.5825349303736 421.76425584149075L1112.5825349303736 421.76425584149075L1112.1095620007459 427.2822733538135L1075.1275834079547 427.2822733538135L1075.78073650125 421.4489405550723ZM1126.5239750941605 421.4489405550723Q1130.262713490265 420.79578746177697 1132.5374880565694 419.98497672527236Q1134.8122626228737 419.1741659887678 1137.2446948323875 417.3948868725495L1137.2446948323875 417.3948868725495L1137.2446948323875 370.6831794417032Q1137.2446948323875 364.6921889997528 1134.72217254104 362.50750451528216Q1132.1996502496925 360.30029751035306 1125.8933445213238 359.9849822239346L1125.8933445213238 359.9849822239346L1126.366317450951 355.2777754481164Q1132.852803342988 354.15164942519345 1139.7446946032765 352.0345325020982Q1146.6365858635654 349.93993809946136 1147.785234406947 349.6021002925845L1147.785234406947 349.6021002925845L1151.0284773529652 351.38137940880284L1151.0284773529652 417.3948868725495Q1155.082531035488 420.30029201169083 1162.379827664029 421.76425584149075L1162.379827664029 421.76425584149075L1161.7266745707336 427.2822733538135L1125.8933445213238 427.2822733538135L1126.5239750941605 421.4489405550723ZM1142.2672168946242 337.5975968882252Q1133.8212717227016 337.5975968882252 1133.8212717227016 328.2057058570474L1133.8212717227016 328.2057058570474Q1133.8212717227016 318.79129230541105 1142.2672168946242 318.79129230541105L1142.2672168946242 318.79129230541105Q1146.478928220356 318.79129230541105 1148.6636127048268 321.2237245149247Q1150.8482971892975 323.65615672443846 1150.8482971892975 328.2057058570474L1150.8482971892975 328.2057058570474Q1150.8482971892975 332.73273246919786 1148.6636127048268 335.16516467871156Q1146.478928220356 337.5975968882252 1142.2672168946242 337.5975968882252L1142.2672168946242 337.5975968882252ZM1170.8032503154932 421.2912829118631Q1174.5419887115975 420.79578746177697 1176.7942407574435 419.98497672527236Q1179.0690153237479 419.1741659887678 1181.5014475332619 417.23722922934024L1181.5014475332619 417.23722922934024L1181.5014475332619 335.34534484237923Q1181.5014475332619 329.33183187997037 1179.0690153237479 327.14714739549976Q1176.6365831142343 324.9624629110291 1170.1500972221977 324.6246251041522L1170.1500972221977 324.6246251041522L1170.6455926722838 319.75976068512483Q1176.9744209211112 318.79129230541105 1183.8663121814 316.7642654641496Q1190.7582034416887 314.7372386228882 1192.1996447510303 314.26426569326054L1192.1996447510303 314.26426569326054L1195.2852300538393 315.8858871662697L1195.2852300538393 417.23722922934024Q1199.3392837363622 420.30029201169083 1206.6365803649032 421.6065981982815L1206.6365803649032 421.6065981982815L1205.9834272716078 427.2822733538135L1170.1500972221977 427.2822733538135L1170.8032503154932 421.2912829118631ZM1214.744687729949 421.2912829118631Q1218.483426126053 420.79578746177697 1220.7582006923576 419.98497672527236Q1223.0104527382036 419.1741659887678 1225.4428849477176 417.23722922934024L1225.4428849477176 417.23722922934024L1225.4428849477176 335.34534484237923Q1225.4428849477176 329.33183187997037 1223.0104527382036 327.14714739549976Q1220.5780205286899 324.9624629110291 1214.0915346366535 324.6246251041522L1214.0915346366535 324.6246251041522L1214.5870300867396 319.75976068512483Q1220.915858335567 318.79129230541105 1227.8077495958555 316.7642654641496Q1234.6996408561445 314.7372386228882 1236.1636046859444 314.26426569326054L1236.1636046859444 314.26426569326054L1239.226667468295 315.8858871662697L1239.226667468295 417.23722922934024Q1243.280721150818 420.30029201169083 1250.578017779359 421.6065981982815L1250.578017779359 421.6065981982815L1249.9473872065223 427.2822733538135L1214.0915346366535 427.2822733538135L1214.744687729949 421.2912829118631ZM1292.2672031479688 428.4083993767365Q1274.091529137991 428.4083993767365 1266.2311694979885 418.4534453340971Q1258.3708098579864 408.47596877099926 1258.3708098579864 388.6786732880128L1258.3708098579864 388.6786732880128Q1258.3708098579864 370.6831794417032 1267.0419802344932 360.39038759218687Q1275.7131506110004 350.0975957426706 1292.2672031479688 350.0975957426706L1292.2672031479688 350.0975957426706Q1308.3257602348508 350.0975957426706 1314.8122461268872 358.5210183941347Q1321.2987320189236 366.96696356605725 1321.7717049485514 383.498493582567L1321.7717049485514 383.498493582567L1318.3708043593238 387.86786255150827L1273.2807184014869 387.86786255150827L1273.2807184014869 388.6786732880128Q1273.2807184014869 399.21921286257214 1274.5870245880774 405.8858789182763Q1275.893330774668 412.5300224535221 1280.2626997436091 416.49398605421106Q1284.6320687125508 420.4804721753585 1293.2356715276824 420.4804721753585L1293.2356715276824 420.4804721753585Q1299.7221574197188 420.4804721753585 1305.0825172888322 418.0480399658448Q1310.4203546374874 415.61560775633114 1314.0014353903825 412.84533773994053L1314.0014353903825 412.84533773994053L1318.0554890729054 417.7102021589679Q1314.0014353903825 421.4489405550723 1307.5149494983461 424.93993122613364Q1301.0284636063097 428.4083993767365 1292.2672031479688 428.4083993767365L1292.2672031479688 428.4083993767365ZM1307.1771116914692 380.7507460866348Q1307.1771116914692 367.93543194577103 1303.8663011840754 362.25975679023907Q1300.5329681562234 356.58408163470716 1291.6140500546735 356.58408163470716L1291.6140500546735 356.58408163470716Q1282.3798166667048 356.58408163470716 1277.987925177305 363.3183152517867Q1273.6185562083638 370.03002634840783 1273.2807184014869 381.87687210955784L1273.2807184014869 381.87687210955784L1307.1771116914692 380.7507460866348ZM1330.8482806933107 421.4489405550723Q1334.5870190894152 420.79578746177697 1336.8617936557198 419.98497672527236Q1339.136568222024 419.1741659887678 1341.569000431538 417.23722922934024L1341.569000431538 417.23722922934024L1341.569000431538 371.02101724858005Q1341.569000431538 365.00750428617124 1339.0464781401902 362.8228198017006Q1336.523955848843 360.63813531722997 1330.217650120474 360.30029751035306L1330.217650120474 360.30029751035306L1330.6906230501013 355.6156132549933Q1335.7131451123382 354.6246223548211 1345.1275586639745 351.71921721567975L1345.1275586639745 351.71921721567975L1350.4879185330878 350.0975957426706L1353.3933236722296 351.5615595724705L1355.0149451452385 362.91290988353444Q1358.753683541343 357.2372347280025 1363.7762056035795 353.6561539751073Q1368.798727665816 350.0975957426706 1374.4744028213481 350.0975957426706L1374.4744028213481 350.0975957426706Q1380.3077356200893 350.0975957426706 1384.6095370276548 353.4984963318981Q1388.9113384352208 356.8993969211256 1388.9113384352208 363.22822516995285L1388.9113384352208 363.22822516995285Q1388.9113384352208 367.2822788524757 1386.568996307541 370.36786415528474Q1384.2041316594027 373.45344945809376 1380.3077356200893 373.45344945809376L1380.3077356200893 373.45344945809376Q1377.559988124157 373.45344945809376 1375.1275559146434 372.05705318966926Q1372.6951237051298 370.6831794417032 1372.0419706118346 368.4084048753987L1372.0419706118346 368.4084048753987Q1372.6951237051298 367.7777743025618 1373.1906191552157 366.3813780341373Q1373.6635920848435 365.00750428617124 1373.6635920848435 363.8813782632482L1373.6635920848435 363.8813782632482Q1373.6635920848435 359.0165138442208 1369.1365654726928 359.0165138442208L1369.1365654726928 359.0165138442208Q1366.208637813093 359.0165138442208 1362.9653948670748 362.10209914702983Q1359.7221519210566 365.1651619293804 1357.5374674365862 369.96245878703246Q1355.3527829521154 374.737233124226 1355.3527829521154 379.60209754325336L1355.3527829521154 379.60209754325336L1355.3527829521154 417.23722922934024Q1359.7221519210566 420.1426343684816 1368.1455745725207 421.76425584149075L1368.1455745725207 421.76425584149075L1367.514943999684 427.2822733538135L1330.217650120474 427.2822733538135L1330.8482806933107 421.4489405550723Z " fill="#8000ff" transform="matrix(0.629989790351005,0,0,0.6299897903510051,0,56.001925251324465)"/></g></svg>